<?xml version="1.0" encoding="utf-8"?>
<svg version="1.1" id="Layer_1" xmlns="http://www.w3.org/2000/svg" xmlns:xlink="http://www.w3.org/1999/xlink" viewBox="0 0 24 18" width="24" height="24">
  <polygon style="stroke: rgb(0, 0, 0); stroke-width: 1.5; fill: none; stroke-linejoin: round;" points="1 1 1 17 6 13 6 5"></polygon>
  <polygon style="stroke: rgb(0, 0, 0); stroke-width: 1.5; fill: none; stroke-linejoin: round;" points="23 17 23 1 18 5 18 13"></polygon>
  <path d="M 15 2 A 3 3 0 0 1 18 5 L 18 5 18 13 A 3 3 0 0 1 15 16 L 15 16 9 16 A 3 3 0 0 1 6 13 L 6 13 6 5 A 3
  3 0 0 1 9 2 L 9 2 15 2" fill="none" stroke="black" stroke-width="1.5"/>
  <line style="stroke: rgb(0, 0, 0); stroke-width: 1.5; stroke-linecap: round;" x1="9" y1="6" x2="12" y2="9"></line>
  <line style="stroke: rgb(0, 0, 0); stroke-width: 1.5; stroke-linecap: round;" x1="9" y1="12" x2="12" y2="9"></line>
  <line style="stroke: rgb(0, 0, 0); stroke-width: 1.5; stroke-linecap: round;" x1="15" y1="12" x2="13" y2="12"></line>
</svg>